<?xml version="1.0" encoding="UTF-8" standalone="no"?>
<!DOCTYPE svg PUBLIC "-//W3C//DTD SVG 1.1//EN" "http://www.w3.org/Graphics/SVG/1.1/DTD/svg11.dtd">
<svg width="100%" height="100%" viewBox="0 0 932 163" version="1.1" xmlns="http://www.w3.org/2000/svg" xmlns:xlink="http://www.w3.org/1999/xlink" xml:space="preserve" xmlns:serif="http://www.serif.com/" style="fill-rule:evenodd;clip-rule:evenodd;stroke-linejoin:round;stroke-miterlimit:2;">
    <g transform="matrix(1,0,0,1,-568.006,-2334.12)">
        <g transform="matrix(4.40349,0,0,4.40349,-1020.4,-3750.8)">
            <path d="M420.135,1417.56L405.536,1392.07L405.243,1390.56L405.243,1417.56L402.093,1417.56L402.093,1382.55L403.729,1382.55L418.329,1408.06L418.646,1409.55L418.646,1382.55L421.795,1382.55L421.795,1417.56L420.135,1417.56Z" style="fill:rgb(115,103,240);fill-rule:nonzero;stroke:rgb(115,103,240);stroke-width:0.23px;"/>
            <path d="M445.013,1410.7C445.013,1411.71 444.822,1412.66 444.439,1413.56C444.057,1414.45 443.532,1415.23 442.865,1415.9C442.197,1416.57 441.416,1417.09 440.521,1417.47C439.626,1417.86 438.674,1418.05 437.665,1418.05L435.663,1418.05C434.653,1418.05 433.701,1417.86 432.806,1417.47C431.911,1417.09 431.13,1416.57 430.462,1415.9C429.795,1415.23 429.27,1414.45 428.888,1413.56C428.505,1412.66 428.314,1411.71 428.314,1410.7L428.314,1399.42C428.314,1398.41 428.505,1397.46 428.888,1396.56C429.27,1395.67 429.795,1394.89 430.462,1394.22C431.13,1393.55 431.911,1393.03 432.806,1392.64C433.701,1392.26 434.653,1392.07 435.663,1392.07L437.665,1392.07C438.674,1392.07 439.626,1392.26 440.521,1392.64C441.416,1393.03 442.197,1393.55 442.865,1394.22C443.532,1394.89 444.057,1395.67 444.439,1396.56C444.822,1397.46 445.013,1398.41 445.013,1399.42L445.013,1410.7ZM442.01,1399.25C442.01,1398.65 441.896,1398.08 441.668,1397.55C441.441,1397.02 441.131,1396.56 440.741,1396.17C440.35,1395.78 439.89,1395.47 439.361,1395.25C438.832,1395.02 438.267,1394.9 437.665,1394.9L435.663,1394.9C435.06,1394.9 434.495,1395.02 433.966,1395.25C433.437,1395.47 432.977,1395.78 432.586,1396.17C432.196,1396.56 431.887,1397.02 431.659,1397.55C431.431,1398.08 431.317,1398.65 431.317,1399.25L431.317,1410.87C431.317,1411.47 431.431,1412.04 431.659,1412.57C431.887,1413.1 432.196,1413.56 432.586,1413.95C432.977,1414.34 433.437,1414.65 433.966,1414.87C434.495,1415.1 435.06,1415.21 435.663,1415.21L437.665,1415.21C438.267,1415.21 438.832,1415.1 439.361,1414.87C439.89,1414.65 440.35,1414.34 440.741,1413.95C441.131,1413.56 441.441,1413.1 441.668,1412.57C441.896,1412.04 442.01,1411.47 442.01,1410.87L442.01,1399.25Z" style="fill:rgb(115,103,240);fill-rule:nonzero;stroke:rgb(115,103,240);stroke-width:0.23px;"/>
            <path d="M458.368,1395.41C457.765,1395.41 457.2,1395.53 456.671,1395.76C456.142,1395.99 455.682,1396.29 455.291,1396.68C454.901,1397.08 454.592,1397.54 454.364,1398.06C454.136,1398.59 454.022,1399.16 454.022,1399.76L454.022,1417.56L451.019,1417.56L451.019,1392.56L452.02,1392.56L453.656,1395.1C454.339,1394.17 455.198,1393.43 456.231,1392.89C457.265,1392.34 458.392,1392.07 459.613,1392.07L461.371,1392.07L461.371,1395.41L458.368,1395.41Z" style="fill:rgb(115,103,240);fill-rule:nonzero;stroke:rgb(115,103,240);stroke-width:0.23px;"/>
            <path d="M481.073,1417.56L479.413,1415.02C478.729,1415.95 477.874,1416.68 476.849,1417.23C475.824,1417.78 474.701,1418.05 473.48,1418.05L472.723,1418.05C471.714,1418.05 470.762,1417.86 469.867,1417.47C468.971,1417.09 468.19,1416.57 467.523,1415.9C466.856,1415.23 466.331,1414.45 465.948,1413.56C465.566,1412.66 465.374,1411.71 465.374,1410.7L465.374,1399.42C465.374,1398.41 465.566,1397.46 465.948,1396.56C466.331,1395.67 466.856,1394.89 467.523,1394.22C468.19,1393.55 468.971,1393.03 469.867,1392.64C470.762,1392.26 471.714,1392.07 472.723,1392.07L473.48,1392.07C474.603,1392.07 475.645,1392.3 476.605,1392.75C477.565,1393.21 478.387,1393.85 479.071,1394.66L479.071,1382.55L482.074,1382.55L482.074,1417.56L481.073,1417.56ZM479.071,1399.25C479.071,1398.65 478.957,1398.08 478.729,1397.55C478.501,1397.02 478.192,1396.56 477.801,1396.17C477.411,1395.78 476.951,1395.47 476.422,1395.25C475.893,1395.02 475.327,1394.9 474.725,1394.9L472.723,1394.9C472.121,1394.9 471.555,1395.02 471.026,1395.25C470.497,1395.47 470.038,1395.78 469.647,1396.17C469.256,1396.56 468.947,1397.02 468.719,1397.55C468.491,1398.08 468.377,1398.65 468.377,1399.25L468.377,1410.87C468.377,1411.47 468.491,1412.04 468.719,1412.57C468.947,1413.1 469.256,1413.56 469.647,1413.95C470.038,1414.34 470.497,1414.65 471.026,1414.87C471.555,1415.1 472.121,1415.21 472.723,1415.21L474.725,1415.21C475.327,1415.21 475.893,1415.1 476.422,1414.87C476.951,1414.65 477.411,1414.34 477.801,1413.95C478.192,1413.56 478.501,1413.1 478.729,1412.57C478.957,1412.04 479.071,1411.47 479.071,1410.87L479.071,1399.25Z" style="fill:rgb(115,103,240);fill-rule:nonzero;stroke:rgb(115,103,240);stroke-width:0.23px;"/>
            <path d="M507.123,1417.56L492.523,1392.07L492.23,1390.56L492.23,1417.56L489.081,1417.56L489.081,1382.55L490.716,1382.55L505.316,1408.06L505.633,1409.55L505.633,1382.55L508.783,1382.55L508.783,1417.56L507.123,1417.56Z" style="fill:rgb(115,103,240);fill-rule:nonzero;stroke:rgb(115,103,240);stroke-width:0.23px;"/>
            <path d="M532,1410.7C532,1411.71 531.809,1412.66 531.427,1413.56C531.044,1414.45 530.519,1415.23 529.852,1415.9C529.185,1416.57 528.403,1417.09 527.508,1417.47C526.613,1417.86 525.661,1418.05 524.652,1418.05L522.65,1418.05C521.641,1418.05 520.689,1417.86 519.793,1417.47C518.898,1417.09 518.117,1416.57 517.45,1415.9C516.782,1415.23 516.257,1414.45 515.875,1413.56C515.492,1412.66 515.301,1411.71 515.301,1410.7L515.301,1399.42C515.301,1398.41 515.492,1397.46 515.875,1396.56C516.257,1395.67 516.782,1394.89 517.45,1394.22C518.117,1393.55 518.898,1393.03 519.793,1392.64C520.689,1392.26 521.641,1392.07 522.65,1392.07L524.652,1392.07C525.661,1392.07 526.613,1392.26 527.508,1392.64C528.403,1393.03 529.185,1393.55 529.852,1394.22C530.519,1394.89 531.044,1395.67 531.427,1396.56C531.809,1397.46 532,1398.41 532,1399.42L532,1410.7ZM528.998,1399.25C528.998,1398.65 528.884,1398.08 528.656,1397.55C528.428,1397.02 528.119,1396.56 527.728,1396.17C527.337,1395.78 526.878,1395.47 526.349,1395.25C525.82,1395.02 525.254,1394.9 524.652,1394.9L522.65,1394.9C522.048,1394.9 521.482,1395.02 520.953,1395.25C520.424,1395.47 519.964,1395.78 519.574,1396.17C519.183,1396.56 518.874,1397.02 518.646,1397.55C518.418,1398.08 518.304,1398.65 518.304,1399.25L518.304,1410.87C518.304,1411.47 518.418,1412.04 518.646,1412.57C518.874,1413.1 519.183,1413.56 519.574,1413.95C519.964,1414.34 520.424,1414.65 520.953,1414.87C521.482,1415.1 522.048,1415.21 522.65,1415.21L524.652,1415.21C525.254,1415.21 525.82,1415.1 526.349,1414.87C526.878,1414.65 527.337,1414.34 527.728,1413.95C528.119,1413.56 528.428,1413.1 528.656,1412.57C528.884,1412.04 528.998,1411.47 528.998,1410.87L528.998,1399.25Z" style="fill:rgb(115,103,240);fill-rule:nonzero;stroke:rgb(115,103,240);stroke-width:0.23px;"/>
            <path d="M547.113,1417.56C546.201,1417.56 545.343,1417.39 544.537,1417.05C543.731,1416.7 543.032,1416.23 542.437,1415.63C541.843,1415.03 541.371,1414.33 541.021,1413.53C540.672,1412.73 540.497,1411.88 540.497,1410.97L540.497,1395.41L536.004,1395.41L536.004,1392.56L540.497,1392.56L540.497,1386.55L543.499,1386.07L543.499,1392.56L549.847,1392.56L549.847,1395.41L543.499,1395.41L543.499,1411.11C543.499,1411.62 543.593,1412.09 543.78,1412.52C543.967,1412.95 544.224,1413.33 544.549,1413.65C544.875,1413.98 545.257,1414.24 545.697,1414.42C546.136,1414.61 546.608,1414.7 547.113,1414.7L549.847,1414.7L549.847,1417.56L547.113,1417.56Z" style="fill:rgb(115,103,240);fill-rule:nonzero;stroke:rgb(115,103,240);stroke-width:0.23px;"/>
            <path d="M572.064,1410.7C572.064,1411.71 571.873,1412.66 571.49,1413.56C571.108,1414.45 570.583,1415.23 569.915,1415.9C569.248,1416.57 568.467,1417.09 567.572,1417.47C566.677,1417.86 565.724,1418.05 564.715,1418.05L562.713,1418.05C561.704,1418.05 560.752,1417.86 559.857,1417.47C558.962,1417.09 558.18,1416.57 557.513,1415.9C556.846,1415.23 556.321,1414.45 555.938,1413.56C555.556,1412.66 555.365,1411.71 555.365,1410.7L555.365,1399.42C555.365,1398.41 555.556,1397.46 555.938,1396.56C556.321,1395.67 556.846,1394.89 557.513,1394.22C558.18,1393.55 558.962,1393.03 559.857,1392.64C560.752,1392.26 561.704,1392.07 562.713,1392.07L564.715,1392.07C565.724,1392.07 566.677,1392.26 567.572,1392.64C568.467,1393.03 569.248,1393.55 569.915,1394.22C570.583,1394.89 571.108,1395.67 571.49,1396.56C571.873,1397.46 572.064,1398.41 572.064,1399.42L572.064,1405.3L558.368,1405.3L558.368,1410.87C558.368,1411.47 558.482,1412.04 558.709,1412.57C558.937,1413.1 559.247,1413.56 559.637,1413.95C560.028,1414.34 560.488,1414.65 561.017,1414.87C561.546,1415.1 562.111,1415.21 562.713,1415.21L564.715,1415.21C565.318,1415.21 565.883,1415.1 566.412,1414.87C566.941,1414.65 567.401,1414.34 567.791,1413.95C568.182,1413.56 568.491,1413.1 568.719,1412.57C568.947,1412.04 569.061,1411.47 569.061,1410.87L569.061,1409.21L572.064,1409.7L572.064,1410.7ZM569.061,1399.25C569.061,1398.65 568.947,1398.08 568.719,1397.55C568.491,1397.02 568.182,1396.56 567.791,1396.17C567.401,1395.78 566.941,1395.47 566.412,1395.25C565.883,1395.02 565.318,1394.9 564.715,1394.9L562.713,1394.9C562.111,1394.9 561.546,1395.02 561.017,1395.25C560.488,1395.47 560.028,1395.78 559.637,1396.17C559.247,1396.56 558.937,1397.02 558.709,1397.55C558.482,1398.08 558.368,1398.65 558.368,1399.25L558.368,1402.96L569.061,1402.96L569.061,1399.25Z" style="fill:rgb(115,103,240);fill-rule:nonzero;stroke:rgb(115,103,240);stroke-width:0.23px;"/>
        </g>
        <path d="M699.034,2496.68C700.76,2496.68 702.159,2495.28 702.159,2493.56L702.159,2353.78C702.159,2352.05 700.76,2350.65 699.034,2350.65L694.485,2350.65C694.485,2350.65 694.485,2346.47 694.485,2346.47C694.485,2344.74 693.085,2343.34 691.36,2343.34L672.151,2343.34C671.499,2340.15 670.229,2337.86 668.551,2336.38C666.89,2334.91 664.792,2334.12 662.216,2334.12C659.412,2334.12 656.915,2335.33 654.834,2337.95C653.609,2339.49 652.733,2341.29 652.233,2343.35C652.233,2343.34 639.627,2343.34 639.627,2343.34C638.975,2340.15 637.705,2337.86 636.028,2336.38C634.366,2334.91 632.268,2334.12 629.692,2334.12C626.888,2334.12 624.391,2335.33 622.31,2337.95C621.085,2339.49 620.209,2341.29 619.709,2343.35C619.709,2343.34 607.926,2343.34 607.926,2343.34C607.273,2340.15 606.004,2337.86 604.326,2336.38C602.664,2334.91 600.566,2334.12 597.991,2334.12C595.186,2334.12 592.689,2335.33 590.609,2337.95C589.384,2339.49 588.508,2341.29 588.007,2343.35C588.007,2343.34 571.131,2343.34 571.131,2343.34C569.405,2343.34 568.006,2344.74 568.006,2346.47L568.006,2486.25C568.006,2487.97 569.405,2489.37 571.131,2489.37L575.68,2489.37C575.68,2489.37 575.68,2493.56 575.68,2493.56C575.68,2495.28 577.079,2496.68 578.805,2496.68L699.034,2496.68ZM668.004,2353.25L684.58,2353.25L684.58,2479.47L577.91,2479.47C577.91,2479.47 577.91,2353.25 577.91,2353.25C577.91,2353.25 588.292,2353.25 588.292,2353.25C589.918,2358.71 593.324,2361.2 597.991,2361.2C599.982,2361.2 601.427,2360.61 602.422,2359.76C603.586,2358.76 604.313,2357.33 604.313,2355.33C604.313,2354.7 604.163,2353.99 603.779,2353.25L619.994,2353.25C621.62,2358.71 625.025,2361.2 629.692,2361.2C631.683,2361.2 633.128,2360.61 634.124,2359.76C635.287,2358.76 636.015,2357.33 636.015,2355.33C636.015,2354.7 635.865,2353.99 635.48,2353.25L652.518,2353.25C654.144,2358.71 657.549,2361.2 662.216,2361.2C664.207,2361.2 665.652,2360.61 666.648,2359.76C667.811,2358.76 668.539,2357.33 668.539,2355.33C668.539,2354.7 668.388,2353.99 668.004,2353.25Z" style="fill:rgb(115,103,240);fill-rule:nonzero;"/>
    </g>
</svg>
